<svg id="Layer_5" data-name="Layer 5" xmlns="http://www.w3.org/2000/svg" xmlns:xlink="http://www.w3.org/1999/xlink" viewBox="0 0 500 500"><defs><style>.cls-1{fill:#fff;}.cls-2{clip-path:url(#clip-path);}.cls-3{fill:url(#linear-gradient);}.cls-4{fill:url(#linear-gradient-2);}.cls-5{fill:url(#linear-gradient-3);}</style><clipPath id="clip-path"><path class="cls-1" d="M266.35,74.2C337.52,77.69,369.94,125,384.6,163.88a189,189,0,0,1,11.89,66.89V282a33.27,33.27,0,0,1-12.05,25.2l-29.61,25.41a29.71,29.71,0,0,0-10.74,22.48v23a25,25,0,0,1-9.86,19.52l-54.82,43.33a21.5,21.5,0,0,1-26.12,0l-54.81-43.33a25,25,0,0,1-9.87-19.52v-23a29.68,29.68,0,0,0-10.74-22.48l-29.61-25.41a33.29,33.29,0,0,1-12-25.2V230.77a189.17,189.17,0,0,1,11.88-66.89C162.77,125,195.19,77.69,266.35,74.2Z"/></clipPath><linearGradient id="linear-gradient" x1="218.02" y1="347.26" x2="346.99" y2="347.26" gradientUnits="userSpaceOnUse"><stop offset="0" stop-color="#aa7917" stop-opacity="0.6"/><stop offset="1" stop-color="#aa7917"/></linearGradient><linearGradient id="linear-gradient-2" x1="258.52" y1="212.82" x2="405.29" y2="212.82" xlink:href="#linear-gradient"/><linearGradient id="linear-gradient-3" x1="258.01" y1="285.13" x2="405.81" y2="285.13" gradientUnits="userSpaceOnUse"><stop offset="0" stop-color="#f2b42a" stop-opacity="0.6"/><stop offset="1" stop-color="#f2c96c"/></linearGradient></defs><title>orpheus-logo</title><path class="cls-1" d="M266.35,74.2C337.52,77.69,369.94,125,384.6,163.88a189,189,0,0,1,11.89,66.89V282a33.27,33.27,0,0,1-12.05,25.2l-29.61,25.41a29.71,29.71,0,0,0-10.74,22.48v23a25,25,0,0,1-9.86,19.52l-54.82,43.33a21.5,21.5,0,0,1-26.12,0l-54.81-43.33a25,25,0,0,1-9.87-19.52v-23a29.68,29.68,0,0,0-10.74-22.48l-29.61-25.41a33.29,33.29,0,0,1-12-25.2V230.77a189.17,189.17,0,0,1,11.88-66.89C162.77,125,195.19,77.69,266.35,74.2Z"/><g class="cls-2"><path class="cls-3" d="M268.51,195.68A165.14,165.14,0,0,1,292.12,247c10.9,40.32.13,83.3-27.69,114.46-37.19,41.63-45.2,100-46.4,134.39a14.45,14.45,0,0,0,23.43,11.84c31.12-24.6,84.74-75.07,101.33-141.22C357,309.74,332.32,253.92,310.06,218.1a115.67,115.67,0,0,0-30.77-32.91C272.31,180.18,263.61,188.63,268.51,195.68Z"/></g><path class="cls-4" d="M262.33,68.86a164.9,164.9,0,0,1,43.11,36.5c26.94,31.92,35.37,75.42,23.35,115.42-16.07,53.46,1.38,109.76,14.84,141.4a14.45,14.45,0,0,0,26.24.81c17.78-35.45,45-103.88,32-170.83-11.12-57.41-57.12-97.53-92.44-120.57a115.58,115.58,0,0,0-41.81-16.8C259.22,53.2,254.91,64.54,262.33,68.86Z"/><path class="cls-5" d="M342.19,136.17a164.94,164.94,0,0,1,17.67,53.65c6.28,41.3-9.27,82.79-40.42,110.6-41.65,37.18-56.19,94.3-61.27,128.31a14.45,14.45,0,0,0,21.95,14.4c33.69-20.93,92.67-65,116.61-128.89,20.53-54.75,2.29-113-15.78-151.1A115.79,115.79,0,0,0,354.08,127C347.72,121.2,338.12,128.61,342.19,136.17Z"/></svg>